<svg version="1.1" id="Layer_1" xmlns="http://www.w3.org/2000/svg" xmlns:xlink="http://www.w3.org/1999/xlink" x="0px" y="0px"
	 width="100%" viewBox="0 0 879 201" enable-background="new 0 0 879 201" xml:space="preserve">
<path fill="none" opacity="1.000000" stroke="none" 
	d="
M630.000000,202.000000 
	C420.048492,202.000000 210.596970,202.000000 1.072731,202.000000 
	C1.072731,135.064056 1.072731,68.128021 1.072731,1.095992 
	C293.999969,1.095992 587.000000,1.095992 879.971069,1.095992 
	C879.971069,68.069649 879.971069,135.034836 879.971069,202.000000 
	C796.794739,202.000000 713.647339,202.000000 630.000000,202.000000 
M478.763519,153.581253 
	C478.880066,143.401779 478.996613,133.222305 480.035492,123.007515 
	C484.032410,123.005173 488.073822,123.379333 492.016052,122.913857 
	C498.213440,122.182129 504.694641,121.813286 510.434509,119.645790 
	C525.253418,114.049828 532.717102,99.080742 530.017334,82.311653 
	C527.778259,68.403595 515.631897,56.939137 501.395538,55.484741 
	C486.749176,55.484741 472.102783,55.484741 456.625916,55.484741 
	C457.108185,61.773479 457.574249,67.850792 458.951569,74.143272 
	C465.276855,74.158920 471.604004,74.083450 477.926880,74.215256 
	C484.564148,74.353615 491.268158,74.176140 497.813385,75.077682 
	C505.156158,76.089073 509.220825,82.056808 508.993652,89.837120 
	C508.785736,96.957718 504.009277,103.046165 497.266754,103.909378 
	C491.387604,104.662048 485.417023,104.700668 479.226196,105.070343 
	C478.659027,97.337570 478.134094,90.180260 477.612427,83.067642 
	C470.766876,83.067642 464.179871,83.067642 457.378906,83.067642 
	C457.378906,106.776573 457.378906,130.153152 457.378906,153.935669 
	C464.443817,153.935669 471.208130,153.935669 478.763519,153.581253 
M222.941071,103.561729 
	C234.382095,119.315567 245.795364,135.089783 257.314545,150.786270 
	C258.282440,152.105148 259.909515,153.707336 261.319702,153.798706 
	C266.750122,154.150482 272.216919,153.941360 277.632477,153.941360 
	C277.632477,120.778221 277.632477,88.080261 277.632477,55.440086 
	C270.818848,55.440086 264.382233,55.440086 257.451599,55.440086 
	C257.451599,75.701599 257.451599,95.698410 257.451599,116.749138 
	C255.778824,114.517250 254.774979,113.222023 253.817337,111.893501 
	C240.971115,94.072433 228.146286,76.235901 215.258133,58.445240 
	C214.347473,57.188160 213.029572,55.393070 211.819931,55.326702 
	C205.906738,55.002296 199.966019,55.179756 194.066406,55.179756 
	C194.066406,88.446922 194.066406,121.033058 194.066406,153.745514 
	C200.935623,153.745514 207.517258,153.745514 214.463593,153.745514 
	C214.463593,133.488998 214.463593,113.458420 214.463593,92.137939 
	C217.640793,96.422836 220.075668,99.706619 222.941071,103.561729 
M609.052307,143.533691 
	C616.099548,135.488297 618.824219,125.896423 618.857605,115.439644 
	C618.918213,96.453842 618.854248,77.467598 618.814270,58.481609 
	C618.812012,57.391762 618.558411,56.302444 618.452026,55.454468 
	C611.481079,55.454468 604.886169,55.454468 597.979309,55.454468 
	C597.979309,61.748569 597.986328,67.723328 597.977844,73.698067 
	C597.958008,87.686562 598.066772,101.677040 597.861572,115.662872 
	C597.709473,126.030983 593.160828,132.727753 585.262878,135.068405 
	C571.729614,139.079132 560.370850,130.936127 560.018982,116.434990 
	C559.639343,100.788284 559.858154,85.126991 559.821777,69.472046 
	C559.811035,64.853058 559.820129,60.234009 559.820129,55.477768 
	C552.628113,55.477768 545.903564,55.477768 539.135193,55.477768 
	C539.135193,77.721970 538.600525,99.700287 539.355225,121.634254 
	C539.747070,133.022858 545.367126,142.521027 555.235046,149.138779 
	C567.770813,157.545715 595.315247,158.497162 609.052307,143.533691 
M316.856079,70.291977 
	C305.697510,97.979645 294.538971,125.667313 283.207092,153.784973 
	C290.922760,153.784973 297.857544,153.784973 305.107544,153.784973 
	C307.079041,148.586563 308.905273,143.242706 311.187592,138.101288 
	C311.807770,136.704193 313.785797,135.019653 315.171143,134.991913 
	C327.318085,134.748749 339.471893,134.851181 351.767181,134.851181 
	C353.836639,140.279572 355.669373,145.614441 357.959595,150.745132 
	C358.576813,152.127960 360.537781,153.717743 361.959167,153.795166 
	C368.100830,154.129700 374.271210,153.938354 380.931641,153.938354 
	C379.170288,149.513168 377.537537,145.388290 375.887878,141.270187 
	C364.889252,113.814163 353.865723,86.368050 342.921387,58.890400 
	C341.915192,56.364239 340.903992,54.766724 337.671783,55.064968 
	C332.896942,55.505554 326.943909,53.660358 323.575348,55.908817 
	C320.210632,58.154724 319.409027,64.240753 317.484528,68.643639 
	C317.351227,68.948624 317.224060,69.256287 316.856079,70.291977 
M757.743042,81.474144 
	C761.263428,76.304649 764.783813,71.135147 768.415100,65.802856 
	C754.654968,56.045246 740.169189,51.967644 724.053345,55.143585 
	C710.084167,57.896469 701.005554,67.968025 699.646484,81.751839 
	C698.334595,95.056915 704.357056,104.084343 718.536743,109.973076 
	C721.139526,111.053970 723.804382,111.988609 726.455811,112.948532 
	C731.605347,114.812859 736.877686,116.389023 741.891357,118.563629 
	C747.362488,120.936607 749.632446,124.983498 748.724915,129.420090 
	C747.815491,133.866333 744.112976,136.681931 738.327881,137.134674 
	C729.483154,137.826874 721.611084,135.025696 714.350464,130.201050 
	C712.067932,128.684341 709.839966,127.085548 707.420715,125.409126 
	C703.753235,130.834290 700.328857,135.899750 696.939209,140.913971 
	C710.217407,153.815125 733.321289,158.901260 750.138916,152.810333 
	C761.893433,148.553146 769.275818,138.823486 769.934814,127.126320 
	C770.666077,114.145760 764.540344,105.536728 753.081970,100.397751 
	C748.393616,98.295044 743.438538,96.792824 738.632446,94.945282 
	C734.142700,93.219330 729.300293,91.988266 725.368225,89.394508 
	C723.050049,87.865318 721.344055,84.238770 720.903442,81.322655 
	C720.328125,77.515533 723.149292,74.739555 726.779297,73.668839 
	C729.428223,72.887527 732.334839,72.479256 735.085022,72.635651 
	C743.289001,73.102180 750.440979,76.589485 757.743042,81.474144 
M839.439819,135.289886 
	C826.331604,135.289886 813.223450,135.289886 799.992981,135.289886 
	C799.992981,127.913193 799.992981,120.900162 799.992981,113.622437 
	C814.136536,113.622437 827.906494,113.622437 841.865234,113.622437 
	C841.865234,107.635284 841.865234,101.922371 841.865234,95.806725 
	C827.706360,95.806725 813.806458,95.806725 799.446411,95.806725 
	C799.446411,91.323730 799.446411,87.245148 799.446411,83.141006 
	C792.340088,83.141006 785.704590,83.141006 778.820435,83.141006 
	C778.820435,106.737015 778.820435,130.152832 778.820435,153.694901 
	C801.936035,153.694901 824.834961,153.694901 847.767212,153.694901 
	C847.767212,147.445786 847.767212,141.431091 847.767212,135.289993 
	C845.049927,135.289993 842.733826,135.289993 839.439819,135.289886 
M631.967041,153.734787 
	C652.861755,153.734787 673.756470,153.734787 694.692505,153.734787 
	C694.692505,147.424973 694.692505,141.517899 694.692505,135.166153 
	C680.517395,135.166153 666.607910,135.166153 652.264526,135.166153 
	C652.264526,108.333870 652.264526,81.948288 652.264526,55.442184 
	C645.109985,55.442184 638.402771,55.442184 631.383240,55.442184 
	C631.383240,88.162941 631.383240,120.586021 631.967041,153.734787 
M406.474945,73.502525 
	C406.474945,67.433617 406.474945,61.364708 406.474945,55.574589 
	C399.085632,55.574589 392.518982,55.574589 386.024994,55.574589 
	C386.024994,88.511116 386.024994,121.068031 386.024994,153.731384 
	C407.102753,153.731384 427.838287,153.731384 448.617554,153.731384 
	C448.617554,147.490753 448.617554,141.458847 448.617554,135.111694 
	C434.522919,135.111694 420.768646,135.111694 406.475983,135.111694 
	C406.475983,114.694206 406.475983,94.597900 406.474945,73.502525 
M55.862110,45.312344 
	C50.713169,53.462021 45.530262,61.590511 40.428211,69.769440 
	C37.440094,74.559586 32.203613,79.486900 32.317276,84.248955 
	C32.436302,89.235573 37.539341,94.246094 40.862610,98.965431 
	C43.261017,102.371376 43.838009,105.074677 40.912502,108.571129 
	C38.159790,111.861069 36.291561,115.875229 33.730221,119.346466 
	C31.898937,121.828293 31.838470,123.770622 33.567909,126.394043 
	C38.597275,134.023209 43.312477,141.858688 48.209335,149.576172 
	C55.038654,160.339233 61.920918,171.068710 68.878639,181.966232 
	C72.187088,180.058731 75.146828,178.352280 78.169281,176.609665 
	C70.286186,161.385818 62.686562,146.430679 54.765800,131.647598 
	C53.178379,128.684891 53.432999,126.647690 55.153820,124.055580 
	C59.106270,118.101906 62.965157,112.074158 66.532967,105.886734 
	C67.288307,104.576805 67.283119,102.080864 66.523445,100.773270 
	C63.102238,94.884460 59.437096,89.119629 55.544617,83.529640 
	C53.516724,80.617371 53.276279,78.309731 55.002609,75.041817 
	C62.816330,60.250587 70.317955,45.294498 78.081902,30.104418 
	C74.852837,28.234833 71.799652,26.467079 68.773186,24.714798 
	C64.342743,31.752024 60.275101,38.212990 55.862110,45.312344 
M144.697311,102.664734 
	C144.697311,101.208237 144.697311,99.751740 144.697311,97.840317 
	C131.053116,97.840317 117.829170,97.840317 104.088013,97.840317 
	C104.088013,92.682434 104.088013,87.962746 104.088013,83.249458 
	C96.966103,83.249458 90.376434,83.249458 83.557228,83.249458 
	C83.557228,106.850334 83.557228,130.228073 83.557228,153.615265 
	C90.587677,153.615265 97.312012,153.615265 104.353828,153.615265 
	C104.353828,140.852661 104.353828,128.422348 104.353828,115.518570 
	C117.914719,115.518570 131.152893,115.518570 144.693253,115.518570 
	C144.693253,111.236885 144.693253,107.431236 144.697311,102.664734 
M180.383621,147.330902 
	C180.383621,126.026115 180.383621,104.721329 180.383621,83.271805 
	C173.256134,83.271805 166.521240,83.271805 159.702576,83.271805 
	C159.702576,106.917358 159.702576,130.322739 159.702576,153.822006 
	C166.675156,153.822006 173.311005,153.822006 180.382202,153.822006 
	C180.382202,151.886063 180.382202,150.082275 180.383621,147.330902 
M823.500061,55.227806 
	C808.710266,55.227806 793.920532,55.227806 778.952637,55.227806 
	C778.952637,61.668179 778.952637,67.743782 778.952637,73.721588 
	C801.659180,73.721588 824.073242,73.721588 846.585205,73.721588 
	C846.585205,67.461777 846.585205,61.545273 846.585205,55.228310 
	C839.073853,55.228310 831.786987,55.228310 823.500061,55.227806 
M149.922028,67.412140 
	C149.922028,63.464291 149.922028,59.516441 149.922028,55.459740 
	C127.537033,55.459740 105.656998,55.459740 83.650803,55.459740 
	C83.650803,61.773186 83.650803,67.806709 83.650803,73.692261 
	C105.913521,73.692261 127.804443,73.692261 149.922394,73.692261 
	C149.922394,71.667397 149.922394,70.022179 149.922028,67.412140 
M174.363251,74.087975 
	C176.291458,74.087975 178.219666,74.087975 180.143524,74.087975 
	C180.143524,67.438332 180.143524,61.374359 180.143524,55.484703 
	C173.057922,55.484703 166.314850,55.484703 159.575455,55.484703 
	C159.575455,61.853168 159.575455,67.887192 159.575455,74.089478 
	C164.427216,74.089478 168.911209,74.089478 174.363251,74.087975 
z"/>
<path fill="#020202" opacity="1.000000" stroke="none" 
	d="
M222.725815,103.276070 
	C220.075668,99.706619 217.640793,96.422836 214.463593,92.137939 
	C214.463593,113.458420 214.463593,133.488998 214.463593,153.745514 
	C207.517258,153.745514 200.935623,153.745514 194.066406,153.745514 
	C194.066406,121.033058 194.066406,88.446922 194.066406,55.179756 
	C199.966019,55.179756 205.906738,55.002296 211.819931,55.326702 
	C213.029572,55.393070 214.347473,57.188160 215.258133,58.445240 
	C228.146286,76.235901 240.971115,94.072433 253.817337,111.893501 
	C254.774979,113.222023 255.778824,114.517250 257.451599,116.749138 
	C257.451599,95.698410 257.451599,75.701599 257.451599,55.440086 
	C264.382233,55.440086 270.818848,55.440086 277.632477,55.440086 
	C277.632477,88.080261 277.632477,120.778221 277.632477,153.941360 
	C272.216919,153.941360 266.750122,154.150482 261.319702,153.798706 
	C259.909515,153.707336 258.282440,152.105148 257.314545,150.786270 
	C245.795364,135.089783 234.382095,119.315567 222.725815,103.276070 
z"/>
<path fill="#040404" opacity="1.000000" stroke="none" 
	d="
M608.809326,143.794220 
	C595.315247,158.497162 567.770813,157.545715 555.235046,149.138779 
	C545.367126,142.521027 539.747070,133.022858 539.355225,121.634254 
	C538.600525,99.700287 539.135193,77.721970 539.135193,55.477768 
	C545.903564,55.477768 552.628113,55.477768 559.820129,55.477768 
	C559.820129,60.234009 559.811035,64.853058 559.821777,69.472046 
	C559.858154,85.126991 559.639343,100.788284 560.018982,116.434990 
	C560.370850,130.936127 571.729614,139.079132 585.262878,135.068405 
	C593.160828,132.727753 597.709473,126.030983 597.861572,115.662872 
	C598.066772,101.677040 597.958008,87.686562 597.977844,73.698067 
	C597.986328,67.723328 597.979309,61.748569 597.979309,55.454468 
	C604.886169,55.454468 611.481079,55.454468 618.452026,55.454468 
	C618.558411,56.302444 618.812012,57.391762 618.814270,58.481609 
	C618.854248,77.467598 618.918213,96.453842 618.857605,115.439644 
	C618.824219,125.896423 616.099548,135.488297 608.809326,143.794220 
z"/>
<path fill="#040404" opacity="1.000000" stroke="none" 
	d="
M316.975067,69.927338 
	C317.224060,69.256287 317.351227,68.948624 317.484528,68.643639 
	C319.409027,64.240753 320.210632,58.154724 323.575348,55.908817 
	C326.943909,53.660358 332.896942,55.505554 337.671783,55.064968 
	C340.903992,54.766724 341.915192,56.364239 342.921387,58.890400 
	C353.865723,86.368050 364.889252,113.814163 375.887878,141.270187 
	C377.537537,145.388290 379.170288,149.513168 380.931641,153.938354 
	C374.271210,153.938354 368.100830,154.129700 361.959167,153.795166 
	C360.537781,153.717743 358.576813,152.127960 357.959595,150.745132 
	C355.669373,145.614441 353.836639,140.279572 351.767181,134.851181 
	C339.471893,134.851181 327.318085,134.748749 315.171143,134.991913 
	C313.785797,135.019653 311.807770,136.704193 311.187592,138.101288 
	C308.905273,143.242706 307.079041,148.586563 305.107544,153.784973 
	C297.857544,153.784973 290.922760,153.784973 283.207092,153.784973 
	C294.538971,125.667313 305.697510,97.979645 316.975067,69.927338 
M344.989258,116.796150 
	C340.842834,105.346268 336.696411,93.896385 332.102844,81.211754 
	C327.325775,94.051193 322.979370,105.733154 318.558777,117.614540 
	C327.765686,117.614540 336.240326,117.614540 344.989258,116.796150 
z"/>
<path fill="#040404" opacity="1.000000" stroke="none" 
	d="
M757.444702,81.291435 
	C750.440979,76.589485 743.289001,73.102180 735.085022,72.635651 
	C732.334839,72.479256 729.428223,72.887527 726.779297,73.668839 
	C723.149292,74.739555 720.328125,77.515533 720.903442,81.322655 
	C721.344055,84.238770 723.050049,87.865318 725.368225,89.394508 
	C729.300293,91.988266 734.142700,93.219330 738.632446,94.945282 
	C743.438538,96.792824 748.393616,98.295044 753.081970,100.397751 
	C764.540344,105.536728 770.666077,114.145760 769.934814,127.126320 
	C769.275818,138.823486 761.893433,148.553146 750.138916,152.810333 
	C733.321289,158.901260 710.217407,153.815125 696.939209,140.913971 
	C700.328857,135.899750 703.753235,130.834290 707.420715,125.409126 
	C709.839966,127.085548 712.067932,128.684341 714.350464,130.201050 
	C721.611084,135.025696 729.483154,137.826874 738.327881,137.134674 
	C744.112976,136.681931 747.815491,133.866333 748.724915,129.420090 
	C749.632446,124.983498 747.362488,120.936607 741.891357,118.563629 
	C736.877686,116.389023 731.605347,114.812859 726.455811,112.948532 
	C723.804382,111.988609 721.139526,111.053970 718.536743,109.973076 
	C704.357056,104.084343 698.334595,95.056915 699.646484,81.751839 
	C701.005554,67.968025 710.084167,57.896469 724.053345,55.143585 
	C740.169189,51.967644 754.654968,56.045246 768.415100,65.802856 
	C764.783813,71.135147 761.263428,76.304649 757.444702,81.291435 
z"/>
<path fill="#EE7132" opacity="1.000000" stroke="none" 
	d="
M502.092987,55.954803 
	C515.631897,56.939137 527.778259,68.403595 530.017334,82.311653 
	C532.717102,99.080742 525.253418,114.049828 510.434509,119.645790 
	C504.694641,121.813286 498.213440,122.182129 492.016052,122.913857 
	C488.073822,123.379333 484.032410,123.005173 479.248352,123.287140 
	C478.298279,133.689728 478.135315,143.812698 477.972412,153.935669 
	C471.208130,153.935669 464.443817,153.935669 457.378906,153.935669 
	C457.378906,130.153152 457.378906,106.776573 457.378906,83.067642 
	C464.179871,83.067642 470.766876,83.067642 477.612427,83.067642 
	C478.134094,90.180260 478.659027,97.337570 479.226196,105.070343 
	C485.417023,104.700668 491.387604,104.662048 497.266754,103.909378 
	C504.009277,103.046165 508.785736,96.957718 508.993652,89.837120 
	C509.220825,82.056808 505.156158,76.089073 497.813385,75.077682 
	C491.268158,74.176140 484.564148,74.353615 477.926880,74.215256 
	C471.604004,74.083450 465.276855,74.158920 458.484985,73.572662 
	C458.016968,69.025673 458.292908,65.024437 457.939392,61.079609 
	C457.552246,56.759380 459.343781,55.839386 463.326111,55.905190 
	C476.245148,56.118683 489.170227,55.966297 502.092987,55.954803 
z"/>
<path fill="#050606" opacity="1.000000" stroke="none" 
	d="
M839.928833,135.289948 
	C842.733826,135.289993 845.049927,135.289993 847.767212,135.289993 
	C847.767212,141.431091 847.767212,147.445786 847.767212,153.694901 
	C824.834961,153.694901 801.936035,153.694901 778.820435,153.694901 
	C778.820435,130.152832 778.820435,106.737015 778.820435,83.141006 
	C785.704590,83.141006 792.340088,83.141006 799.446411,83.141006 
	C799.446411,87.245148 799.446411,91.323730 799.446411,95.806725 
	C813.806458,95.806725 827.706360,95.806725 841.865234,95.806725 
	C841.865234,101.922371 841.865234,107.635284 841.865234,113.622437 
	C827.906494,113.622437 814.136536,113.622437 799.992981,113.622437 
	C799.992981,120.900162 799.992981,127.913193 799.992981,135.289886 
	C813.223450,135.289886 826.331604,135.289886 839.928833,135.289948 
z"/>
<path fill="#060606" opacity="1.000000" stroke="none" 
	d="
M631.675171,153.371948 
	C631.383240,120.586021 631.383240,88.162941 631.383240,55.442184 
	C638.402771,55.442184 645.109985,55.442184 652.264526,55.442184 
	C652.264526,81.948288 652.264526,108.333870 652.264526,135.166153 
	C666.607910,135.166153 680.517395,135.166153 694.692505,135.166153 
	C694.692505,141.517899 694.692505,147.424973 694.692505,153.734787 
	C673.756470,153.734787 652.861755,153.734787 631.675171,153.371948 
z"/>
<path fill="#040404" opacity="1.000000" stroke="none" 
	d="
M406.475464,74.002060 
	C406.475983,94.597900 406.475983,114.694206 406.475983,135.111694 
	C420.768646,135.111694 434.522919,135.111694 448.617554,135.111694 
	C448.617554,141.458847 448.617554,147.490753 448.617554,153.731384 
	C427.838287,153.731384 407.102753,153.731384 386.024994,153.731384 
	C386.024994,121.068031 386.024994,88.511116 386.024994,55.574589 
	C392.518982,55.574589 399.085632,55.574589 406.474945,55.574589 
	C406.474945,61.364708 406.474945,67.433617 406.475464,74.002060 
z"/>
<path fill="#050505" opacity="1.000000" stroke="none" 
	d="
M56.034782,44.993149 
	C60.275101,38.212990 64.342743,31.752024 68.773186,24.714798 
	C71.799652,26.467079 74.852837,28.234833 78.081902,30.104418 
	C70.317955,45.294498 62.816330,60.250587 55.002609,75.041817 
	C53.276279,78.309731 53.516724,80.617371 55.544617,83.529640 
	C59.437096,89.119629 63.102238,94.884460 66.523445,100.773270 
	C67.283119,102.080864 67.288307,104.576805 66.532967,105.886734 
	C62.965157,112.074158 59.106270,118.101906 55.153820,124.055580 
	C53.432999,126.647690 53.178379,128.684891 54.765800,131.647598 
	C62.686562,146.430679 70.286186,161.385818 78.169281,176.609665 
	C75.146828,178.352280 72.187088,180.058731 68.878639,181.966232 
	C61.920918,171.068710 55.038654,160.339233 48.209335,149.576172 
	C43.312477,141.858688 38.597275,134.023209 33.567909,126.394043 
	C31.838470,123.770622 31.898937,121.828293 33.730221,119.346466 
	C36.291561,115.875229 38.159790,111.861069 40.912502,108.571129 
	C43.838009,105.074677 43.261017,102.371376 40.862610,98.965431 
	C37.539341,94.246094 32.436302,89.235573 32.317276,84.248955 
	C32.203613,79.486900 37.440094,74.559586 40.428211,69.769440 
	C45.530262,61.590511 50.713169,53.462021 56.034782,44.993149 
z"/>
<path fill="#060607" opacity="1.000000" stroke="none" 
	d="
M144.695282,103.145157 
	C144.693253,107.431236 144.693253,111.236885 144.693253,115.518570 
	C131.152893,115.518570 117.914719,115.518570 104.353828,115.518570 
	C104.353828,128.422348 104.353828,140.852661 104.353828,153.615265 
	C97.312012,153.615265 90.587677,153.615265 83.557228,153.615265 
	C83.557228,130.228073 83.557228,106.850334 83.557228,83.249458 
	C90.376434,83.249458 96.966103,83.249458 104.088013,83.249458 
	C104.088013,87.962746 104.088013,92.682434 104.088013,97.840317 
	C117.829170,97.840317 131.053116,97.840317 144.697311,97.840317 
	C144.697311,99.751740 144.697311,101.208237 144.695282,103.145157 
z"/>
<path fill="#060606" opacity="1.000000" stroke="none" 
	d="
M180.382904,147.804688 
	C180.382202,150.082275 180.382202,151.886063 180.382202,153.822006 
	C173.311005,153.822006 166.675156,153.822006 159.702576,153.822006 
	C159.702576,130.322739 159.702576,106.917358 159.702576,83.271805 
	C166.521240,83.271805 173.256134,83.271805 180.383621,83.271805 
	C180.383621,104.721329 180.383621,126.026115 180.382904,147.804688 
z"/>
<path fill="#070707" opacity="1.000000" stroke="none" 
	d="
M824.000061,55.228058 
	C831.786987,55.228310 839.073853,55.228310 846.585205,55.228310 
	C846.585205,61.545273 846.585205,67.461777 846.585205,73.721588 
	C824.073242,73.721588 801.659180,73.721588 778.952637,73.721588 
	C778.952637,67.743782 778.952637,61.668179 778.952637,55.227806 
	C793.920532,55.227806 808.710266,55.227806 824.000061,55.228058 
z"/>
<path fill="#070707" opacity="1.000000" stroke="none" 
	d="
M149.922211,67.894554 
	C149.922394,70.022179 149.922394,71.667397 149.922394,73.692261 
	C127.804443,73.692261 105.913521,73.692261 83.650803,73.692261 
	C83.650803,67.806709 83.650803,61.773186 83.650803,55.459740 
	C105.656998,55.459740 127.537033,55.459740 149.922028,55.459740 
	C149.922028,59.516441 149.922028,63.464291 149.922211,67.894554 
z"/>
<path fill="#080909" opacity="1.000000" stroke="none" 
	d="
M173.879227,74.088730 
	C168.911209,74.089478 164.427216,74.089478 159.575455,74.089478 
	C159.575455,67.887192 159.575455,61.853168 159.575455,55.484703 
	C166.314850,55.484703 173.057922,55.484703 180.143524,55.484703 
	C180.143524,61.374359 180.143524,67.438332 180.143524,74.087975 
	C178.219666,74.087975 176.291458,74.087975 173.879227,74.088730 
z"/>
<path fill="#C77147" opacity="1.000000" stroke="none" 
	d="
M501.744263,55.719772 
	C489.170227,55.966297 476.245148,56.118683 463.326111,55.905190 
	C459.343781,55.839386 457.552246,56.759380 457.939392,61.079609 
	C458.292908,65.024437 458.016968,69.025673 458.029358,73.465073 
	C457.574249,67.850792 457.108185,61.773479 456.625916,55.484741 
	C472.102783,55.484741 486.749176,55.484741 501.744263,55.719772 
z"/>
<path fill="#CF6936" opacity="1.000000" stroke="none" 
	d="
M478.367950,153.758453 
	C478.135315,143.812698 478.298279,133.689728 478.787170,123.304794 
	C478.996613,133.222305 478.880066,143.401779 478.367950,153.758453 
z"/>
<path fill="#F5F6F6" opacity="1.000000" stroke="none" 
	d="
M344.852112,117.205345 
	C336.240326,117.614540 327.765686,117.614540 318.558777,117.614540 
	C322.979370,105.733154 327.325775,94.051193 332.102844,81.211754 
	C336.696411,93.896385 340.842834,105.346268 344.852112,117.205345 
z"/>
</svg>